<svg id="visual" viewBox="0 0 900 600" width="900" height="600" xmlns="http://www.w3.org/2000/svg" xmlns:xlink="http://www.w3.org/1999/xlink" version="1.1"><path d="M0 199L25 199C50 199 100 199 150 202C200 205 250 211 300 197C350 183 400 149 450 147C500 145 550 175 600 188C650 201 700 197 750 184C800 171 850 149 875 138L900 127L900 0L875 0C850 0 800 0 750 0C700 0 650 0 600 0C550 0 500 0 450 0C400 0 350 0 300 0C250 0 200 0 150 0C100 0 50 0 25 0L0 0Z" fill="#c08261"></path><path d="M0 253L25 253C50 253 100 253 150 266C200 279 250 305 300 297C350 289 400 247 450 243C500 239 550 273 600 284C650 295 700 283 750 271C800 259 850 247 875 241L900 235L900 125L875 136C850 147 800 169 750 182C700 195 650 199 600 186C550 173 500 143 450 145C400 147 350 181 300 195C250 209 200 203 150 200C100 197 50 197 25 197L0 197Z" fill="#a66b4b"></path><path d="M0 373L25 382C50 391 100 409 150 424C200 439 250 451 300 450C350 449 400 435 450 433C500 431 550 441 600 437C650 433 700 415 750 411C800 407 850 417 875 422L900 427L900 233L875 239C850 245 800 257 750 269C700 281 650 293 600 282C550 271 500 237 450 241C400 245 350 287 300 295C250 303 200 277 150 264C100 251 50 251 25 251L0 251Z" fill="#8d5536"></path><path d="M0 469L25 472C50 475 100 481 150 493C200 505 250 523 300 525C350 527 400 513 450 505C500 497 550 495 600 485C650 475 700 457 750 457C800 457 850 475 875 484L900 493L900 425L875 420C850 415 800 405 750 409C700 413 650 431 600 435C550 439 500 429 450 431C400 433 350 447 300 448C250 449 200 437 150 422C100 407 50 389 25 380L0 371Z" fill="#744022"></path><path d="M0 601L25 601C50 601 100 601 150 601C200 601 250 601 300 601C350 601 400 601 450 601C500 601 550 601 600 601C650 601 700 601 750 601C800 601 850 601 875 601L900 601L900 491L875 482C850 473 800 455 750 455C700 455 650 473 600 483C550 493 500 495 450 503C400 511 350 525 300 523C250 521 200 503 150 491C100 479 50 473 25 470L0 467Z" fill="#5c2b0f"></path></svg>